<?xml version="1.0" encoding="utf-8"?>
<svg viewBox="0 0 16 16" fill="currentColor" xmlns="http://www.w3.org/2000/svg">
  <path d="M 6.192 11.842 C 5.734 12.519 5.265 13.09 4.842 13.485 C 4.632 13.69 4.393 13.864 4.132 14 C 3.915 14.104 3.572 14.205 3.25 14.02 C 2.883 13.807 2.823 13.39 2.82 13.124 C 2.817 12.82 2.884 12.46 2.993 12.08 C 3.189 11.393 3.549 10.552 4.028 9.678 L 0.752 6.402 C 0.475 6.125 0.483 5.746 0.534 5.484 C 0.589 5.201 0.721 4.891 0.894 4.581 C 1.242 3.954 1.814 3.22 2.52 2.513 C 3.227 1.806 3.961 1.235 4.588 0.887 C 4.898 0.714 5.208 0.582 5.491 0.527 C 5.753 0.477 6.131 0.468 6.409 0.745 L 12.024 6.36 C 12.142 6.103 12.116 5.848 12.074 5.421 C 12.044 5.129 12.006 4.756 12.001 4.245 L 12.001 4.122 L 12.004 4.122 C 12.068 3.354 12.939 2.945 13.571 3.384 C 13.816 3.554 13.972 3.824 13.997 4.122 L 14 4.122 L 14 4.179 C 14.001 4.218 14 4.257 13.996 4.296 C 13.941 5.546 13.296 7.034 12.136 7.79 C 12.074 7.938 12.003 8.083 11.925 8.224 C 11.576 8.85 11.005 9.584 10.298 10.291 C 9.591 10.998 8.857 11.57 8.23 11.918 C 7.92 12.09 7.61 12.222 7.327 12.278 C 7.065 12.328 6.687 12.336 6.409 12.059 L 6.192 11.843 L 6.192 11.842 Z M 4.16 12.755 C 4.541 12.399 5.004 11.833 5.471 11.123 L 4.767 10.418 C 4.385 11.145 4.107 11.82 3.954 12.356 C 3.887 12.575 3.843 12.8 3.823 13.029 C 3.914 12.968 4.027 12.879 4.16 12.755 L 4.16 12.755 Z M 4.554 8.79 C 5.094 7.938 5.661 7.223 6.161 6.757 C 6.443 6.494 6.903 6.635 6.989 7.01 C 7.03 7.184 6.974 7.367 6.843 7.489 C 6.39 7.911 5.826 8.625 5.279 9.516 L 6.367 10.604 C 6.421 10.484 6.482 10.361 6.55 10.239 C 6.899 9.612 7.47 8.878 8.177 8.171 C 8.883 7.464 9.617 6.893 10.245 6.545 C 10.367 6.477 10.489 6.415 10.61 6.362 L 5.749 1.5 C 5.726 1.502 5.703 1.505 5.681 1.51 C 5.544 1.537 5.339 1.614 5.073 1.762 C 4.549 2.054 3.887 2.562 3.227 3.222 C 2.567 3.882 2.059 4.542 1.767 5.068 C 1.62 5.333 1.542 5.538 1.516 5.675 C 1.511 5.697 1.508 5.72 1.506 5.743 L 4.554 8.79 L 4.554 8.79 Z M 7.424 10.725 C 7.32 10.901 7.24 11.089 7.183 11.286 C 7.318 11.253 7.507 11.176 7.745 11.045 C 8.269 10.753 8.931 10.245 9.591 9.585 C 10.041 9.135 10.421 8.684 10.709 8.275 C 10.351 8.299 9.992 8.268 9.643 8.184 C 9.379 8.403 9.126 8.635 8.883 8.878 C 8.223 9.538 7.716 10.2 7.425 10.725 L 7.424 10.725 Z" style="transform-origin: 7.25326px 7.31123px;" transform="matrix(-1, 0, 0, -1, 2.16164e-7, 0.000001171566)"/>
</svg>